<svg width="20" height="21" viewBox="0 0 20 21" fill="none" xmlns="http://www.w3.org/2000/svg">
<path d="M10 20.4766C11.3135 20.4783 12.6143 20.2204 13.8278 19.7177C15.0413 19.2151 16.1435 18.4775 17.071 17.5476C18.001 16.62 18.7385 15.5178 19.2411 14.3044C19.7438 13.0909 20.0017 11.79 20 10.4766C20.0017 9.1631 19.7438 7.86226 19.2411 6.64878C18.7385 5.4353 18.001 4.33312 17.071 3.40557C16.1435 2.47558 15.0413 1.73807 13.8278 1.23541C12.6143 0.732757 11.3135 0.474869 10 0.476571C8.68654 0.474896 7.38569 0.732797 6.17222 1.23545C4.95874 1.73811 3.85656 2.47561 2.92901 3.40557C1.99904 4.33312 1.26154 5.4353 0.758889 6.64878C0.256234 7.86226 -0.00166607 9.1631 8.36827e-06 10.4766C-0.00169347 11.79 0.256194 13.0909 0.75885 14.3044C1.26151 15.5178 1.99902 16.62 2.92901 17.5476C3.85656 18.4775 4.95874 19.215 6.17222 19.7177C7.38569 20.2203 8.68654 20.4782 10 20.4766Z" fill="black"/>
<path d="M5.49902 10.4766L8.49902 13.4766L14.499 7.47656" fill="black"/>
<path d="M5.49902 10.4766L8.49902 13.4766L14.499 7.47656" stroke="white" stroke-width="2" stroke-linecap="round" stroke-linejoin="round"/>
</svg>
