<svg width="16" height="17" viewBox="0 0 16 17" fill="none" xmlns="http://www.w3.org/2000/svg">
<g clip-path="url(#clip0_7927_43908)">
<path d="M7.99967 8.97526H7.49967C7.49967 9.19048 7.63739 9.38154 7.84156 9.4496L7.99967 8.97526ZM8.49967 5.64193C8.49967 5.36578 8.27582 5.14193 7.99967 5.14193C7.72353 5.14193 7.49967 5.36578 7.49967 5.64193H8.49967ZM9.84156 10.1163C10.1035 10.2036 10.3867 10.062 10.474 9.80004C10.5613 9.53807 10.4198 9.25491 10.1578 9.16758L9.84156 10.1163ZM7.99967 8.97526H8.49967V5.64193H7.99967H7.49967V8.97526H7.99967ZM7.99967 8.97526L7.84156 9.4496L9.84156 10.1163L9.99967 9.64193L10.1578 9.16758L8.15779 8.50092L7.99967 8.97526ZM14.6663 8.97526H14.1663C14.1663 12.381 11.4054 15.1419 7.99967 15.1419V15.6419V16.1419C11.9577 16.1419 15.1663 12.9333 15.1663 8.97526H14.6663ZM7.99967 15.6419V15.1419C4.59392 15.1419 1.83301 12.381 1.83301 8.97526H1.33301H0.833008C0.833008 12.9333 4.04163 16.1419 7.99967 16.1419V15.6419ZM1.33301 8.97526H1.83301C1.83301 5.5695 4.59392 2.80859 7.99967 2.80859V2.30859V1.80859C4.04163 1.80859 0.833008 5.01722 0.833008 8.97526H1.33301ZM7.99967 2.30859V2.80859C11.4054 2.80859 14.1663 5.5695 14.1663 8.97526H14.6663H15.1663C15.1663 5.01722 11.9577 1.80859 7.99967 1.80859V2.30859Z" fill="#81858F"/>
</g>
<defs>
<clipPath id="clip0_7927_43908">
<rect width="16" height="16" fill="white" transform="translate(0 0.976562)"/>
</clipPath>
</defs>
</svg>
