<svg width="20" height="21" viewBox="0 0 20 21" fill="none" xmlns="http://www.w3.org/2000/svg">
<path d="M18.3332 10.2142C18.3332 14.8166 14.6022 18.5475 9.99984 18.5475M18.3332 10.2142C18.3332 5.61182 14.6022 1.88086 9.99984 1.88086M18.3332 10.2142C18.3332 8.83348 14.6022 7.71419 9.99984 7.71419C5.39746 7.71419 1.6665 8.83348 1.6665 10.2142M18.3332 10.2142C18.3332 11.5949 14.6022 12.7142 9.99984 12.7142C5.39746 12.7142 1.6665 11.5949 1.6665 10.2142M9.99984 18.5475C5.39746 18.5475 1.6665 14.8166 1.6665 10.2142M9.99984 18.5475C11.8408 18.5475 13.3332 14.8166 13.3332 10.2142C13.3332 5.61182 11.8408 1.88086 9.99984 1.88086M9.99984 18.5475C8.15889 18.5475 6.6665 14.8166 6.6665 10.2142C6.6665 5.61182 8.15889 1.88086 9.99984 1.88086M1.6665 10.2142C1.6665 5.61182 5.39746 1.88086 9.99984 1.88086" stroke="white" stroke-width="1.5"/>
</svg>
