<svg width="14" height="14" viewBox="0 0 14 14" fill="none" xmlns="http://www.w3.org/2000/svg">
<path d="M3.5 12.3346C3.22386 12.3346 3 12.5585 3 12.8346C3 13.1108 3.22386 13.3346 3.5 13.3346V12.3346ZM10.5 13.3346C10.7761 13.3346 11 13.1108 11 12.8346C11 12.5585 10.7761 12.3346 10.5 12.3346V13.3346ZM11.375 5.54297H10.875C10.875 6.51697 10.2498 7.79048 9.37528 8.85564C8.94643 9.37797 8.47933 9.82287 8.04104 10.1326C7.58719 10.4533 7.2271 10.5846 7 10.5846V11.0846V11.5846C7.53852 11.5846 8.10812 11.3096 8.61814 10.9493C9.14371 10.5779 9.67467 10.0669 10.1482 9.49019C11.0783 8.35725 11.875 6.85992 11.875 5.54297H11.375ZM7 11.0846V10.5846C6.783 10.5846 6.42741 10.4486 5.97061 10.1056C5.53146 9.77592 5.06296 9.30328 4.63239 8.75179C3.75461 7.62749 3.125 6.29506 3.125 5.31612H2.625H2.125C2.125 6.62814 2.91727 8.17997 3.84417 9.36718C4.31595 9.97145 4.8455 10.5114 5.37022 10.9053C5.87728 11.286 6.45138 11.5846 7 11.5846V11.0846ZM2.625 5.31612H3.125C3.125 3.23836 4.97455 1.66797 7 1.66797V1.16797V0.667969C4.51513 0.667969 2.125 2.59758 2.125 5.31612H2.625ZM7 1.16797V1.66797C9.00704 1.66797 10.875 3.22132 10.875 5.54297H11.375H11.875C11.875 2.61461 9.50328 0.667969 7 0.667969V1.16797ZM8.75 5.2513H8.25C8.25 5.94166 7.69036 6.5013 7 6.5013V7.0013V7.5013C8.24264 7.5013 9.25 6.49394 9.25 5.2513H8.75ZM7 7.0013V6.5013C6.30964 6.5013 5.75 5.94166 5.75 5.2513H5.25H4.75C4.75 6.49394 5.75736 7.5013 7 7.5013V7.0013ZM5.25 5.2513H5.75C5.75 4.56095 6.30964 4.0013 7 4.0013V3.5013V3.0013C5.75736 3.0013 4.75 4.00866 4.75 5.2513H5.25ZM7 3.5013V4.0013C7.69036 4.0013 8.25 4.56095 8.25 5.2513H8.75H9.25C9.25 4.00866 8.24264 3.0013 7 3.0013V3.5013ZM3.5 12.8346V13.3346H10.5V12.8346V12.3346H3.5V12.8346Z" fill="white"/>
</svg>
