<svg width="16" height="17" viewBox="0 0 16 17" fill="none" xmlns="http://www.w3.org/2000/svg">
<g clip-path="url(#clip0_7927_43914)">
<path d="M4 15.1419C3.72386 15.1419 3.5 15.3658 3.5 15.6419C3.5 15.9181 3.72386 16.1419 4 16.1419V15.1419ZM12 16.1419C12.2761 16.1419 12.5 15.9181 12.5 15.6419C12.5 15.3658 12.2761 15.1419 12 15.1419V16.1419ZM13 7.30859H12.5C12.5 8.44624 11.7732 9.91766 10.7698 11.1398C10.2765 11.7407 9.73812 12.2538 9.23099 12.6122C8.70828 12.9816 8.28179 13.1419 8 13.1419V13.6419V14.1419C8.59321 14.1419 9.22922 13.8379 9.80808 13.4289C10.4025 13.0088 11.0047 12.4296 11.5427 11.7744C12.6018 10.4844 13.5 8.78919 13.5 7.30859H13ZM8 13.6419V13.1419C7.72831 13.1419 7.30632 12.9748 6.78066 12.5802C6.27267 12.1988 5.73288 11.6538 5.23786 11.0198C4.23117 9.73036 3.5 8.19191 3.5 7.04933H3H2.5C2.5 8.525 3.39383 10.2828 4.44964 11.6352C4.98587 12.322 5.58671 12.9343 6.18027 13.3799C6.75618 13.8122 7.39669 14.1419 8 14.1419V13.6419ZM3 7.04933H3.5C3.5 4.62899 5.65238 2.80859 8 2.80859V2.30859V1.80859C5.19296 1.80859 2.5 3.9882 2.5 7.04933H3ZM8 2.30859V2.80859C10.3292 2.80859 12.5 4.61195 12.5 7.30859H13H13.5C13.5 4.00524 10.8254 1.80859 8 1.80859V2.30859ZM10 6.97526H9.5C9.5 7.80369 8.82843 8.47526 8 8.47526V8.97526V9.47526C9.38071 9.47526 10.5 8.35597 10.5 6.97526H10ZM8 8.97526V8.47526C7.17157 8.47526 6.5 7.80369 6.5 6.97526H6H5.5C5.5 8.35597 6.61929 9.47526 8 9.47526V8.97526ZM6 6.97526H6.5C6.5 6.14683 7.17157 5.47526 8 5.47526V4.97526V4.47526C6.61929 4.47526 5.5 5.59455 5.5 6.97526H6ZM8 4.97526V5.47526C8.82843 5.47526 9.5 6.14683 9.5 6.97526H10H10.5C10.5 5.59455 9.38071 4.47526 8 4.47526V4.97526ZM4 15.6419V16.1419H12V15.6419V15.1419H4V15.6419Z" fill="#81858F"/>
</g>
<defs>
<clipPath id="clip0_7927_43914">
<rect width="16" height="16" fill="white" transform="translate(0 0.976562)"/>
</clipPath>
</defs>
</svg>
