<svg width="276" height="251" viewBox="0 0 276 251" fill="none" xmlns="http://www.w3.org/2000/svg">
<path d="M56.4932 244.732H219.503C223.984 244.743 228.303 243.05 231.595 239.992C245.327 227.202 256.312 211.72 263.876 194.5C271.44 177.279 275.422 158.684 275.577 139.858C276.28 63.3082 214.426 0.321676 138.332 0.141019C62.1949 -0.0397406 0.417571 61.9986 0.417571 138.553C0.395834 157.606 4.29563 176.458 11.8714 193.921C19.4472 211.384 30.5349 227.08 44.4363 240.021C47.7211 243.064 52.0275 244.747 56.4932 244.732Z" fill="#F5F5F6"/>
<path d="M105.16 49.6406L47.6085 55.222C45.3835 55.4378 43.3186 56.4743 41.8162 58.1295C40.3138 59.7847 39.4814 61.94 39.4814 64.1754V235.607C39.4814 237.843 40.3138 239.998 41.8162 241.653C43.3186 243.308 45.3835 244.345 47.6085 244.561L105.16 250.142V49.6406Z" fill="#E5E6E8"/>
<path d="M105.161 49.6406L170.84 56.0102V243.772L105.161 250.142V49.6406Z" fill="#CDCFD4"/>
<path d="M228.939 50.3721L170.839 56.0066V243.769L228.939 249.403C229.899 249.496 230.867 249.388 231.782 249.084C232.697 248.781 233.538 248.29 234.252 247.642C234.966 246.994 235.536 246.204 235.926 245.322C236.317 244.441 236.518 243.488 236.518 242.524V57.2517C236.518 56.2878 236.317 55.3345 235.926 54.4531C235.536 53.5717 234.966 52.7817 234.252 52.1338C233.538 51.486 232.697 50.9945 231.782 50.6911C230.867 50.3877 229.899 50.2791 228.939 50.3721Z" fill="#E5E6E8"/>
<path d="M236.518 183.615L186.487 187.8L145.173 168.85L151.654 162.288C152.751 161.177 153.377 159.684 153.399 158.123C153.421 156.561 152.839 155.051 151.773 153.909L110.586 109.754L141.256 87.092L198.707 92.564C200.088 92.6954 201.472 92.3485 202.627 91.5815C203.783 90.8144 204.64 89.6738 205.055 88.3504L216.585 51.5742L203.504 52.8428L194.974 80.0513L140.097 74.825C138.612 74.6842 137.127 75.0962 135.927 75.982L97.8871 104.09L97.8754 104.098L73.2605 122.286L39.4814 125.383V137.535L76.049 134.183C77.1505 134.083 78.2032 133.682 79.0926 133.024L100.79 116.993L138.962 157.916L86.1309 211.408C85.3017 212.248 84.7361 213.312 84.5037 214.469C84.2713 215.626 84.3823 216.825 84.8231 217.92L97.4963 249.399L105.16 250.142L110.628 249.612L97.5333 217.086L136.123 178.014L182.886 199.462C183.678 199.825 184.538 200.013 185.409 200.013C185.577 200.013 185.745 200.006 185.913 199.992L236.518 195.759V183.615Z" fill="white"/>
<path d="M132.549 95.9225L107.189 59.9938C102.061 52.7299 99.6654 43.8881 100.424 35.0293C101.182 26.1705 105.045 17.8645 111.332 11.5775L111.332 11.5774C114.834 8.07537 118.992 5.29737 123.568 3.40206C128.143 1.50675 133.048 0.53125 138 0.53125C142.953 0.53125 147.857 1.50675 152.433 3.40206C157.009 5.29737 161.166 8.07537 164.668 11.5774L164.668 11.5775C170.955 17.8645 174.819 26.1705 175.577 35.0293C176.335 43.8881 173.939 52.7299 168.812 59.9938L143.452 95.9225C142.835 96.7954 142.019 97.5076 141.07 97.9991C140.122 98.4907 139.069 98.7472 138 98.7472C136.932 98.7472 135.879 98.4907 134.93 97.9991C133.982 97.5076 133.165 96.7954 132.549 95.9225Z" fill="#242528"/>
<path d="M138 60.5877C150.328 60.5877 160.322 50.5942 160.322 38.2665C160.322 25.9389 150.328 15.9453 138 15.9453C125.673 15.9453 115.679 25.9389 115.679 38.2665C115.679 50.5942 125.673 60.5877 138 60.5877Z" fill="white"/>
<path d="M141.37 206.899L131.69 223.665C131.506 223.984 131.41 224.345 131.41 224.713C131.41 225.08 131.506 225.442 131.69 225.76C131.874 226.078 132.139 226.343 132.457 226.527C132.775 226.71 133.136 226.807 133.504 226.807H152.865C153.232 226.807 153.593 226.71 153.912 226.527C154.23 226.343 154.495 226.078 154.678 225.76C154.862 225.442 154.959 225.08 154.959 224.713C154.959 224.345 154.862 223.984 154.678 223.665L144.998 206.899C144.814 206.58 144.55 206.316 144.232 206.132C143.913 205.948 143.552 205.852 143.184 205.852C142.817 205.852 142.456 205.948 142.137 206.132C141.819 206.316 141.554 206.58 141.37 206.899Z" fill="#242528"/>
<path d="M68.0561 128.371L58.3758 145.138C58.192 145.457 58.0952 145.818 58.0952 146.185C58.0952 146.553 58.192 146.914 58.3758 147.233C58.5596 147.551 58.8241 147.815 59.1425 147.999C59.4609 148.183 59.822 148.28 60.1897 148.28H79.5502C79.9178 148.28 80.279 148.183 80.5974 147.999C80.9158 147.815 81.1802 147.551 81.364 147.233C81.5479 146.914 81.6447 146.553 81.6447 146.185C81.6446 145.818 81.5479 145.457 81.364 145.138L71.6838 128.371C71.5 128.053 71.2356 127.789 70.9172 127.605C70.5988 127.421 70.2376 127.324 69.8699 127.324C69.5023 127.324 69.1411 127.421 68.8227 127.605C68.5043 127.789 68.2399 128.053 68.0561 128.371Z" fill="#CDCFD4"/>
<path d="M208.663 193.293L198.982 210.06C198.798 210.378 198.702 210.74 198.702 211.107C198.702 211.475 198.798 211.836 198.982 212.154C199.166 212.473 199.431 212.737 199.749 212.921C200.067 213.105 200.428 213.202 200.796 213.202H220.157C220.524 213.202 220.885 213.105 221.204 212.921C221.522 212.737 221.787 212.473 221.97 212.154C222.154 211.836 222.251 211.475 222.251 211.107C222.251 210.74 222.154 210.378 221.97 210.06L212.29 193.293C212.106 192.975 211.842 192.711 211.524 192.527C211.205 192.343 210.844 192.246 210.476 192.246C210.109 192.246 209.748 192.343 209.429 192.527C209.111 192.711 208.846 192.975 208.663 193.293Z" fill="#CDCFD4"/>
<path d="M188.294 89.3168L178.614 106.083C178.43 106.402 178.333 106.763 178.333 107.131C178.333 107.498 178.43 107.86 178.614 108.178C178.798 108.496 179.062 108.761 179.381 108.945C179.699 109.128 180.06 109.225 180.428 109.225H199.788C200.156 109.225 200.517 109.128 200.836 108.945C201.154 108.761 201.419 108.496 201.602 108.178C201.786 107.86 201.883 107.498 201.883 107.131C201.883 106.763 201.786 106.402 201.602 106.083L191.922 89.3168C191.738 88.9984 191.474 88.734 191.155 88.5501C190.837 88.3663 190.476 88.2695 190.108 88.2695C189.741 88.2695 189.379 88.3663 189.061 88.5501C188.743 88.734 188.478 88.9984 188.294 89.3168Z" fill="#242528"/>
</svg>
