<svg width="24" height="25" viewBox="0 0 24 25" fill="none" xmlns="http://www.w3.org/2000/svg">
<path d="M14.6833 7.40625L8.18359 10.9516M14.6833 16.8793L8.18359 13.3339" stroke="black" stroke-width="1.2"/>
<path d="M17 15.7422C18.3255 15.7422 19.4004 16.8171 19.4004 18.1426C19.4004 19.4681 18.3255 20.543 17 20.543C15.6745 20.543 14.5996 19.4681 14.5996 18.1426C14.5996 16.8171 15.6745 15.7422 17 15.7422ZM6 9.74219C7.32548 9.74219 8.40039 10.8171 8.40039 12.1426C8.40039 13.4681 7.32548 14.543 6 14.543C4.67452 14.543 3.59961 13.4681 3.59961 12.1426C3.59961 10.8171 4.67452 9.74219 6 9.74219ZM17 3.74219C18.3255 3.74219 19.4004 4.81709 19.4004 6.14258C19.4004 7.46806 18.3255 8.54297 17 8.54297C15.6745 8.54297 14.5996 7.46806 14.5996 6.14258C14.5996 4.81709 15.6745 3.74219 17 3.74219Z" stroke="black" stroke-width="1.2"/>
</svg>
