<svg width="19" height="19" viewBox="0 0 19 19" fill="none" xmlns="http://www.w3.org/2000/svg">
<path d="M1.5 5.19146H17.5M13.1 5.19146L12.4649 2.13573C12.3705 1.6815 12.3233 1.45438 12.2034 1.28462C12.0977 1.13491 11.953 1.01712 11.7849 0.944112C11.5943 0.861328 11.3623 0.861328 10.8984 0.861328H8.10164C7.6377 0.861328 7.40573 0.861328 7.21514 0.944112C7.04705 1.01712 6.90226 1.13491 6.79657 1.28462C6.67674 1.45438 6.62953 1.6815 6.53512 2.13573L5.9 5.19146M3.23811 5.90349L3.46311 10.9648L3.62917 13.5951C3.72915 15.1788 3.77914 15.9706 4.11936 16.5712C4.41888 17.1 4.87192 17.5254 5.41852 17.791C6.03939 18.0927 6.8328 18.0927 8.41963 18.0927H11.7967C12.2717 18.0927 12.5092 18.0927 12.7119 18.0649C13.9709 17.8924 14.9846 16.9453 15.2423 15.701C15.2838 15.5007 15.2999 15.2637 15.3322 14.7898V14.7898L15.5572 10.9648L15.7822 5.90349" stroke="white" stroke-width="1.5" stroke-linecap="round" stroke-linejoin="round"/>
</svg>
