<svg width="11" height="11" viewBox="0 0 11 11" fill="none" xmlns="http://www.w3.org/2000/svg">
<path fill-rule="evenodd" clip-rule="evenodd" d="M5.59413 0.675369C5.39809 0.475398 5.07606 0.475398 4.88003 0.675369L4.19002 1.37923C4.06843 1.50326 3.89118 1.55531 3.72184 1.5167L2.76083 1.29762C2.48781 1.23538 2.2169 1.40948 2.1601 1.68369L1.96016 2.64886C1.92493 2.81894 1.80396 2.95855 1.64062 3.01763L0.713732 3.35288C0.450396 3.44813 0.316619 3.74106 0.417084 4.00245L0.770699 4.9225C0.833012 5.08462 0.806722 5.26748 0.701257 5.40548L0.102759 6.18863C-0.0672781 6.41113 -0.0214483 6.72988 0.204386 6.89546L0.999279 7.47827C1.13935 7.58098 1.21609 7.74901 1.20198 7.92213L1.1219 8.90453C1.09914 9.18364 1.31003 9.42701 1.58953 9.44421L2.57333 9.50475C2.74669 9.51542 2.9021 9.61529 2.98382 9.76856L3.44757 10.6383C3.57933 10.8854 3.88832 10.9761 4.13275 10.8395L4.9931 10.3585C5.14471 10.2738 5.32944 10.2738 5.48105 10.3585L6.34141 10.8395C6.58584 10.9761 6.89483 10.8854 7.02658 10.6383L7.49034 9.76856C7.57206 9.61529 7.72746 9.51542 7.90082 9.50475L8.88462 9.44421C9.16413 9.42701 9.37501 9.18364 9.35226 8.90453L9.27217 7.92213C9.25806 7.74901 9.3348 7.58098 9.47488 7.47827L10.2698 6.89546C10.4956 6.72988 10.5414 6.41113 10.3714 6.18863L9.7729 5.40548C9.66743 5.26748 9.64114 5.08462 9.70346 4.9225L10.0571 4.00245C10.1575 3.74106 10.0238 3.44813 9.76042 3.35288L8.83353 3.01763C8.6702 2.95855 8.54922 2.81894 8.51399 2.64886L8.31406 1.68369C8.25726 1.40948 7.98635 1.23538 7.71332 1.29762L6.75232 1.5167C6.58297 1.55531 6.40572 1.50326 6.28413 1.37923L5.59413 0.675369ZM7.27749 5.02349C7.44999 4.80786 7.41503 4.49321 7.1994 4.32071C6.98377 4.1482 6.66912 4.18316 6.49662 4.3988L4.64559 6.71258L3.94061 6.00759C3.74534 5.81233 3.42876 5.81233 3.2335 6.00759C3.03824 6.20285 3.03824 6.51943 3.2335 6.7147L4.3335 7.8147C4.43407 7.91526 4.5727 7.96824 4.7147 7.96038C4.85671 7.95251 4.98864 7.88455 5.07749 7.77349L7.27749 5.02349Z" fill="white"/>
</svg>
